<?xml version="1.0" standalone="no"?>
<!DOCTYPE svg PUBLIC "-//W3C//DTD SVG 20010904//EN"
 "http://www.w3.org/TR/2001/REC-SVG-20010904/DTD/svg10.dtd">
<svg version="1.0" xmlns="http://www.w3.org/2000/svg"
 width="344.000000pt" height="144.000000pt" viewBox="0 0 344.000000 144.000000"
 preserveAspectRatio="xMidYMid meet">

<g transform="translate(0.000000,144.000000) scale(0.100000,-0.100000)"
fill="#000000" stroke="none">
<path d="M1464 1227 c-86 -34 -134 -104 -134 -198 1 -137 141 -233 275 -189
59 19 120 87 134 148 39 159 -121 298 -275 239z m132 -46 c98 -45 131 -164 72
-259 -29 -47 -113 -86 -165 -76 -106 19 -174 109 -159 207 19 118 139 179 252
128z"/>
<path d="M571 833 c-67 -171 -180 -477 -176 -481 8 -8 9 -4 47 93 l34 90 101
3 100 3 36 -93 c27 -72 40 -94 56 -96 12 -2 21 -1 21 1 0 6 -148 397 -185 490
-10 24 -21 21 -34 -10z m52 -153 l45 -115 -85 -3 c-47 -2 -88 -1 -90 2 -4 4
80 236 84 232 1 -1 22 -53 46 -116z"/>
<path d="M2000 850 c0 -6 32 -10 75 -10 l75 0 0 -245 c0 -238 1 -245 20 -245
19 0 20 7 20 245 l0 245 75 0 c43 0 75 4 75 10 0 6 -63 10 -170 10 -107 0
-170 -4 -170 -10z"/>
<path d="M2390 815 c-11 -13 -11 -19 3 -33 20 -19 41 -5 35 24 -4 24 -22 28
-38 9z"/>
<path d="M850 515 c0 -158 1 -165 20 -165 19 0 20 7 20 123 0 115 2 125 23
145 26 25 65 40 90 34 35 -7 47 -54 47 -182 0 -113 1 -120 20 -120 19 0 20 7
20 129 l0 130 28 19 c47 33 67 35 99 8 28 -24 28 -26 32 -155 3 -121 4 -131
22 -131 18 0 19 9 19 115 0 128 -12 173 -54 200 -33 22 -77 14 -123 -21 -28
-22 -34 -23 -39 -9 -4 9 -20 23 -36 31 -37 19 -78 11 -118 -23 l-30 -25 0 31
c0 24 -4 31 -20 31 -19 0 -20 -7 -20 -165z"/>
<path d="M1422 664 c-37 -19 -69 -72 -58 -99 9 -26 29 -13 38 26 11 44 51 79
89 79 53 0 108 -80 79 -115 -7 -8 -30 -19 -51 -25 -22 -5 -57 -15 -80 -21 -76
-19 -101 -73 -56 -124 31 -36 107 -44 160 -17 36 19 37 19 37 1 0 -12 7 -19
20 -19 19 0 20 7 20 110 0 117 -11 160 -49 194 -29 26 -107 31 -149 10z m149
-225 c-14 -45 -39 -68 -84 -76 -29 -4 -40 -1 -61 20 -51 51 -24 99 69 123 33
8 65 20 70 25 15 15 19 -49 6 -92z"/>
<path d="M1710 515 c0 -158 1 -165 20 -165 19 0 20 7 20 123 0 115 2 125 23
145 50 47 109 45 127 -3 6 -15 10 -80 10 -146 0 -112 1 -119 20 -119 19 0 20
7 20 125 0 142 -10 174 -59 195 -36 14 -82 2 -118 -32 l-23 -21 0 31 c0 25 -4
32 -20 32 -19 0 -20 -7 -20 -165z"/>
<path d="M2390 515 c0 -158 1 -165 20 -165 19 0 20 7 20 165 0 158 -1 165 -20
165 -19 0 -20 -7 -20 -165z"/>
<path d="M2490 676 c0 -2 27 -76 61 -163 57 -149 60 -160 49 -197 -14 -47 -62
-98 -84 -90 -8 3 -16 18 -18 32 -4 36 -38 44 -38 8 0 -28 33 -56 65 -56 22 0
54 29 73 65 24 47 152 398 147 403 -7 8 -7 9 -61 -136 l-50 -133 -51 133 c-41
109 -54 134 -72 136 -11 2 -21 1 -21 -2z"/>
<path d="M2853 660 c-37 -22 -56 -52 -51 -83 5 -38 32 -26 39 17 12 76 86 101
140 47 19 -19 29 -40 29 -59 0 -33 -20 -45 -112 -67 -33 -7 -69 -21 -79 -31
-21 -19 -25 -64 -9 -94 22 -41 133 -50 188 -14 20 13 22 13 22 -6 0 -13 7 -20
20 -20 19 0 20 7 20 98 0 122 -11 162 -56 201 -42 37 -101 42 -151 11z m163
-172 c-10 -71 -29 -104 -70 -118 -65 -21 -106 6 -106 69 0 36 4 39 100 72 41
14 77 27 79 27 2 1 0 -21 -3 -50z"/>
</g>
</svg>
